<?xml version="1.0" encoding="utf-8"?>
<!-- Svg Vector Icons : http://www.onlinewebfonts.com/icon -->
<!DOCTYPE svg PUBLIC "-//W3C//DTD SVG 1.1//EN" "http://www.w3.org/Graphics/SVG/1.1/DTD/svg11.dtd">
<svg version="1.1" xmlns="http://www.w3.org/2000/svg" xmlns:xlink="http://www.w3.org/1999/xlink" x="0px" y="0px" viewBox="0 0 1000 1000" enable-background="new 0 0 1000 1000" xml:space="preserve">
<metadata> Svg Vector Icons : http://www.onlinewebfonts.com/icon </metadata>
<g><g transform="translate(0.000000,512.000000) scale(0.100000,-0.100000)"><path d="M1720.5,4998.7C959.2,4860.6,358.9,4310.2,151.8,3560.3L100,3368.5V117.9v-3250.7l51.8-191.8C341.6-4011.2,871-4540.5,1557.5-4730.4l191.8-51.8H5000h3250.7l191.8,51.8c105.5,30.7,278.1,97.8,383.6,149.6c496.7,247.4,870.7,709.6,1022.2,1256.2l51.8,191.8V117.9v3250.7l-51.8,191.8c-189.9,686.6-719.2,1215.9-1405.8,1405.8l-191.8,51.8l-3193.1,3.8C2437.8,5023.6,1839.5,5019.8,1720.5,4998.7z M8072.3,4624.7c245.5-23,416.2-72.9,609.9-176.4c280-149.6,498.6-368.2,648.2-648.2c103.6-193.7,153.4-364.4,176.4-609.9c26.9-278.1,26.9-5866.6,0-6144.7c-23-245.5-72.9-416.2-176.4-609.9c-149.6-280-368.2-498.6-648.2-648.2c-193.7-103.6-364.4-153.4-609.9-176.4c-278.1-26.9-5866.6-26.9-6144.7,0c-245.5,23-416.2,72.9-609.9,176.4c-280,149.6-498.6,368.2-648.2,648.2c-103.6,193.7-153.4,364.4-176.4,609.9c-26.8,278.1-26.8,5866.6,0,6144.7c23,245.5,72.9,416.2,176.4,609.9c249.3,466,705.7,772.9,1225.5,822.7C2138.6,4645.8,7826.9,4647.7,8072.3,4624.7z"/><path d="M2238.4,3435.7c-57.5-11.5-174.5-53.7-258.9-94c-324.1-159.2-508.2-452.6-508.2-811.2c0-586.8,521.7-1008.8,1135.3-920.6c552.3,78.6,907.1,565.8,795.9,1089.3c-74.8,347.1-308.8,606-644.4,709.6C2643,3443.3,2370.7,3456.8,2238.4,3435.7z M2562.5,3050.2c67.1-9.6,147.7-32.6,176.4-47.9c324.1-166.8,393.1-602.2,138.1-861.1c-120.8-122.7-360.5-184.1-556.2-143.8c-149.6,30.7-232.1,76.7-326,176.4c-97.8,107.4-130.4,199.4-128.5,370.1c1.9,266.6,174.5,460.3,450.7,506.3c57.5,9.6,107.4,17.3,113.1,19.2C2435.9,3069.4,2495.3,3061.7,2562.5,3050.2z"/><path d="M1613.1,1485.3c-23-3.8-61.4-28.8-86.3-55.6l-46-49.9V-967.6v-2345.5l44.1-44.1l44.1-44.1l861.1-5.7l861.1-5.8l63.3,57.5l63.3,55.6l3.8,2318.6c3.8,1827.7,0,2326.3-19.2,2364.7c-13.4,26.8-53.7,63.3-90.1,80.6c-61.4,30.7-140,34.5-863,32.6C2012.1,1494.8,1634.2,1489.1,1613.1,1485.3z M3043.8-965.7v-2061.7h-594.5h-594.5v2061.7v2061.6h594.5h594.5V-965.7z"/><path d="M3780.3,1485.3c-23-3.8-65.2-34.5-95.9-65.2l-55.6-57.5V-965.7v-2330.1l53.7-51.8l51.8-53.7l863-5.7l861.1-5.8l63.3,57.5l63.3,55.6l9.6,1407.7c7.7,947.4,17.3,1424.9,32.6,1465.2c107.4,299.2,347.1,412.3,669.3,312.6c78.7-24.9,168.8-120.8,222.5-237.8l44.1-95.9l9.6-1424.9l9.6-1426.9l63.3-55.6l63.3-57.5l861.1,5.8l861.1,5.7l44.1,44.1l44.1,44.1v1528.5c0,1674.2,3.8,1624.4-118.9,1996.4c-235.9,728.8-813.1,1194.8-1570.7,1267.7c-226.3,21.1-519.7,0-705.8-49.9c-134.2-36.4-370.1-140-450.7-197.5c-30.7-23-59.5-40.3-65.2-40.3c-3.8,0-13.4,42.2-21.1,92.1c-9.6,69-26.8,107.4-70.9,149.6l-57.5,55.6l-818.9,1.9C4188.8,1492.9,3801.4,1491,3780.3,1485.3z M5193.7,854.3l7.7-241.6l63.3-55.6c46-40.3,80.6-55.6,136.2-55.6c67.1,0,84.4,11.5,212.9,153.4c280,312.6,577.3,441.1,1014.5,441.1c669.3,0,1173.7-354.8,1386.6-972.3c117-335.6,117-333.7,124.7-1802.7l7.7-1348.2h-594.5h-596.4V-1752c0,866.9-7.7,1306-21.1,1375.1c-97.8,456.4-444.9,713.4-924.4,680.8c-209-13.4-351-69-481.4-188c-138.1-126.6-212.9-241.6-276.2-429.6l-51.8-153.4l-5.7-1279.2l-5.8-1281.1h-583h-584.9v2061.7v2061.6h583h583L5193.7,854.3z"/></g></g>
</svg>